<svg id="Capa_1" data-name="Capa 1" xmlns="http://www.w3.org/2000/svg" viewBox="0 0 2057.21 1316.8"><defs><style>.cls-1,.cls-2,.cls-3{fill:#fff;}.cls-2,.cls-3{stroke:#00796b;stroke-miterlimit:10;}.cls-2{stroke-width:0.75px;}.cls-3{stroke-width:3px;}</style></defs><path class="cls-1" d="M0,1099.13a220.17,220.17,0,0,1,8.43-59.29,303.34,303.34,0,0,1,23.25-58.71,325,325,0,0,1,35.46-54.06,255.42,255.42,0,0,1,45.92-44.47A217.37,217.37,0,0,1,167.12,853a169.07,169.07,0,0,1,59.59-10.75q13.36,0,34.58,2.91A213.71,213.71,0,0,1,302.57,855q20.06,7,34.29,18.31t14.24,27a6.49,6.49,0,0,1-.29,2,6.36,6.36,0,0,0-.29,2,5.14,5.14,0,0,0-.58,2.32,67.41,67.41,0,0,1-5.81,6.69,49.2,49.2,0,0,1-6.4,6.1,6.43,6.43,0,0,1-2.9.58,10.93,10.93,0,0,1-3.49.59,8,8,0,0,1-3.49-.59,5.07,5.07,0,0,1-2.32-.58q-2.92-1.74-13.95-7.26l-23.84-11.92-23.83-11.92q-11.06-5.52-14-6.68a18.93,18.93,0,0,1-4.65-.58,20.55,20.55,0,0,1-3.49-.29,18.67,18.67,0,0,0-2.91-.29,140.86,140.86,0,0,0-52.31,9.88,167.59,167.59,0,0,0-45.93,27.32,232.26,232.26,0,0,0-37.78,40.11,279.57,279.57,0,0,0-28.77,48,255.23,255.23,0,0,0-18,51.73A228.55,228.55,0,0,0,50,1109q0,32.55,10.47,58.13t29.06,42.72A122.1,122.1,0,0,0,134,1235.74a174.61,174.61,0,0,0,56.09,8.72q17.44,0,43-4.65a215.08,215.08,0,0,0,49.12-15.12q23.55-10.45,39.82-27t16.28-41q0-9.87-2.91-15.4a18.36,18.36,0,0,0-8.14-8.14,31.33,31.33,0,0,0-12.79-2.91q-7.56-.29-15.69-.29-12.8,0-22.09,4.07a180,180,0,0,0-18.31,9.3,197.93,197.93,0,0,1-18,9.3q-9,4.08-21.22,4.07-15.12,0-23.83-4.65t-8.72-21.51q0-16.26,11.91-26.45a80.87,80.87,0,0,1,28.49-15.4,168.66,168.66,0,0,1,34.58-7q18-1.74,29.65-1.74a223.39,223.39,0,0,1,38.95,3.2q18,3.19,31.1,11.62A54.69,54.69,0,0,1,381.33,1118q7,14.82,7,38.07,0,36-19.77,62.49a157.84,157.84,0,0,1-49.7,43.31,252.48,252.48,0,0,1-64.52,25.28q-34.59,8.44-64.24,8.43-41.85,0-77-14.53a171.73,171.73,0,0,1-60.16-41q-25-26.44-38.95-62.78T0,1099.13Z"/><path class="cls-1" d="M423.19,1187.49A138.7,138.7,0,0,1,440,1120.35a176.48,176.48,0,0,1,44.47-53.48,218.33,218.33,0,0,1,62.2-35.17,200.67,200.67,0,0,1,70-12.79,53.59,53.59,0,0,1,35.17,12.79,112.58,112.58,0,0,1,25.86,31.1,164.73,164.73,0,0,1,16,38.66q5.52,20.36,5.52,35.46,0,32.57-15.69,63.07a198.92,198.92,0,0,1-40.69,54.06,210.9,210.9,0,0,1-56.39,38.07q-31.39,14.55-62.78,14.54-27.9,0-47.09-9.59t-30.8-25.58q-11.64-16-17.15-37.79A187.12,187.12,0,0,1,423.19,1187.49Zm49.41,5.81a118.71,118.71,0,0,0,2.61,26.45,46.78,46.78,0,0,0,9.3,19.48,42.53,42.53,0,0,0,17.73,12.49q11,4.37,27.32,4.36,21.51,0,43-11.91a159.92,159.92,0,0,0,66.27-70.63q10.46-22.08,10.46-43a131.46,131.46,0,0,0-1.74-20.34,83.4,83.4,0,0,0-5.82-20.35,42.82,42.82,0,0,0-11.62-15.69q-7.56-6.39-19.19-6.4-10.46,0-24.7,7a209.39,209.39,0,0,0-29.65,18,294.34,294.34,0,0,0-30.22,25q-14.83,14-27,27.9a165.59,165.59,0,0,0-19.47,26.74Q472.59,1185.18,472.6,1193.3Z"/><path class="cls-1" d="M722,1109.6q0-15.12,7.56-21.8t24.41-6.69h5.82q1.74,9.32,4.07,21.51a160.48,160.48,0,0,0,7,25,137.94,137.94,0,0,0,11.05,23.54,53.53,53.53,0,0,0,15.69,17.15,91.53,91.53,0,0,1,10.17-39.24,139.5,139.5,0,0,1,23.84-33.71,147.84,147.84,0,0,1,31.39-25,110.53,110.53,0,0,1,34-13.66h12.79q27.9,0,47.67,12.5a107.43,107.43,0,0,1,32.84,32.55,159.92,159.92,0,0,1,20.06,45.63,427.84,427.84,0,0,1,10.75,52,481.68,481.68,0,0,1,4.65,51.15q.87,24.72.87,42.15H984.14q-3.5-34.89-8.72-66.85-1.74-12.78-4.65-27t-6.4-26.74q-3.48-12.49-7.55-23.26a85.88,85.88,0,0,0-9.3-18.31c-1.56-1.54-3.59-3.68-6.11-6.39s-5.14-5.42-7.84-8.14-5.24-5-7.56-7-3.69-2.91-4.07-2.91q-17.45-4.65-30.23,6.68T869,1143.31a201.34,201.34,0,0,0-16,43.6q-6.1,24.42-10.18,46.79t-5.81,39q-1.74,16.57-2.33,20.06-14.54,10.45-27.32,6.1T783.3,1280.5Q772,1266.55,763,1245.62t-16.56-44.47q-7.56-23.54-13.66-47.37T722,1109.6Z"/><path class="cls-1" d="M1058.54,1068.32q0-3.48.29-12.49t.3-18.9q0-9.87.29-18.31c.19-5.61.29-9.59.29-11.91a101.13,101.13,0,0,1,9.59-13.66q5.52-6.67,11.62-9.3a20.79,20.79,0,0,1,13.37-.88q7.26,1.75,14.83,11.63v12.21q-.58,2.91-2.33,13.66t-4.07,23.54q-2.33,12.79-4.36,23.54t-2,13.66a204.89,204.89,0,0,0,2.32,27.61q2.32,16.58,6.69,34.59a318.55,318.55,0,0,0,11,36,160.9,160.9,0,0,0,16,32.26,102.43,102.43,0,0,0,20.63,23.55,40.45,40.45,0,0,0,26.45,9.3q18.6,0,32.85-9.88A94.44,94.44,0,0,0,1237,1209a150.33,150.33,0,0,0,17.15-35.46,329.61,329.61,0,0,0,10.76-39.82,369.18,369.18,0,0,0,5.81-38.66q1.74-18.58,1.74-32.55a165.42,165.42,0,0,0-2-26.45q-2.06-12.49-4.94-24.7t-5-24.13a142.52,142.52,0,0,1-2-24.12q0-11,7.85-15.7a34.18,34.18,0,0,1,17.73-4.65q12.21,0,19.76,7.27a51.11,51.11,0,0,1,11.92,18.31,95.51,95.51,0,0,1,5.81,25.29,280.19,280.19,0,0,1,1.45,28.19q0,13.95-.58,26.45t-.58,20a393,393,0,0,1-2.9,44.76,346.51,346.51,0,0,1-10.18,51.45,424.12,424.12,0,0,1-18,52,204.76,204.76,0,0,1-26.16,45.63,129.82,129.82,0,0,1-35.45,32.26q-20.06,12.21-45.06,12.21-26.14,0-45.92-12.5a110.94,110.94,0,0,1-33.42-33.13,214.13,214.13,0,0,1-23-46.8,348.38,348.38,0,0,1-14.25-52.32,490.47,490.47,0,0,1-7-50.86Q1058.54,1086.34,1058.54,1068.32Z"/><path class="cls-1" d="M1470.1,1293.87q-9.3,8.14-19.47-7.56T1430,1238.94q-10.46-31.68-20.63-75.86t-19.48-93.59q-9.3-49.41-17.73-100.28t-14.82-95.62q0-8.13-.29-16.57a51.1,51.1,0,0,1,1.74-15.69,30.92,30.92,0,0,1,7.56-13.08q5.52-5.81,17.15-8.72,1.15-.57,4.94.87c2.52,1,5.13,2.14,7.85,3.49a52.41,52.41,0,0,1,7.26,4.36,18.3,18.3,0,0,1,4.36,4.07,565.07,565.07,0,0,0,25,211.59q1.74-1.74,9.3-11.92t19.18-23.83q11.63-13.65,26.45-29.36a338.17,338.17,0,0,1,31.1-29.06,217.89,217.89,0,0,1,32.55-22.38q16.27-9,31.4-9a39.08,39.08,0,0,1,17.14,4.07q8.43,4.07,8.43,15.69a12.73,12.73,0,0,1-.58,3.2,12.43,12.43,0,0,0-.58,3.2q-9.3,8.15-28.19,25t-39.82,37.79q-20.92,20.93-40.11,43.6t-29.07,43a9.29,9.29,0,0,0-1.16,6.11q.57,2.61,1.16,6.1,6.39,2.33,20.35,7t30.81,10.76q16.85,6.11,36,12.79t36,13.08q16.85,6.4,30.52,11.33t20.63,7.27a79.71,79.71,0,0,0,13.37,4.65,23,23,0,0,1,8.14,3.2,10.72,10.72,0,0,1,4.07,5.52q1.15,3.48,1.16,10.46,0,16.88-8.14,22.09t-23.25,5.23a307.62,307.62,0,0,1-87.77-18.89,803.07,803.07,0,0,1-87.2-38.66q-1.74,11.05,1.45,25.58t7.85,29.07q4.65,14.54,9,28.48a115.25,115.25,0,0,1,5.23,25q.88,11-2.61,17.43T1470.1,1293.87Z"/><path class="cls-1" d="M1819.46,795.11q3.49-10.46,10.18-12.2a60.88,60.88,0,0,1,15.4-1.75q13.37,0,29.94,17.73t34,47.38q17.44,29.64,35.17,68t34.3,79.35q16.56,41,31.1,81.67t25.28,74.7q10.76,34,16.57,59t5.81,34.3a38.15,38.15,0,0,1-4.35,17.73q-4.37,8.43-15.41,8.42a17.38,17.38,0,0,1-11.92-4.36,38.92,38.92,0,0,1-8.42-10.75q-3.49-6.39-6.4-12.79t-5.23-11q-2.32-6.39-9.59-24.42t-15.12-37.78q-7.85-19.75-14.82-37.21t-9.88-25q-40.69-7-81.67-13.08t-86.33-11.92h-6.39q-20.92,90.12-36.91,142.42T1718,1297.94q-10.77,22.08-16.86,18.31t-8.14-26.74q-2-23,.58-61.33t9.89-84.58q7.26-46.21,17.72-96.78a1000.76,1000.76,0,0,1,25.29-97.66,779,779,0,0,1,33.13-87.49Q1798,821.28,1819.46,795.11Zm-14,204.62q0,21.51,14,31.68t33.72,13.08a239.74,239.74,0,0,0,41.56,2.33q21.79-.57,37.5-.58,0-23.25-7.56-50.29a417.18,417.18,0,0,0-19.18-53.77q-11.64-26.73-24.71-52t-24.12-45.64q-6.4,6.4-13.66,23.55t-14.54,38.36q-7.28,21.23-13.08,41.57t-8.72,33.13c0,1.16-.19,4.17-.58,9S1805.51,998.19,1805.51,999.73Z"/><path class="cls-1" d="M1345.55,295.9v-.11A10.52,10.52,0,0,0,1335,285.32H1081.2A10.66,10.66,0,0,0,1070.54,296V579.6a10.71,10.71,0,0,0,11.89,10.62c136.19-15.1,244.52-122.54,260.92-258.36A288.15,288.15,0,0,0,1345.55,295.9Z"/><path class="cls-2" d="M1036.69,580.41V403.87A10.66,10.66,0,0,0,1026,393.21H785a10.66,10.66,0,0,0-9.92,14.62c41.23,100.93,136.57,174,250,183.22A10.71,10.71,0,0,0,1036.69,580.41Z"/><path class="cls-1" d="M1036.69,357.16V11.39A10.7,10.7,0,0,0,1025.12.74C872.9,13.07,753.22,140.52,753.22,295.9a296.42,296.42,0,0,0,6.87,63.69,10.58,10.58,0,0,0,10.38,8.23H1026A10.66,10.66,0,0,0,1036.69,357.16Z"/><path class="cls-3" d="M1308.87,153C1263.52,70.76,1180.14,12.38,1082.44,1.57a10.7,10.7,0,0,0-11.9,10.62V26.9a10.61,10.61,0,0,0,9.3,10.56,260.15,260.15,0,0,1,193.68,126.18,10.74,10.74,0,0,0,9.21,5.33h16.86A10.69,10.69,0,0,0,1308.87,153Z"/></svg>