<svg width="26" height="27" viewBox="0 0 26 27" fill="none" xmlns="http://www.w3.org/2000/svg">
<path d="M0.718935 0.500129C0.453719 0.537391 0.214168 0.678485 0.0529801 0.89237C-0.108207 1.10626 -0.177828 1.37541 -0.140565 1.64063C-0.103302 1.90584 0.0377918 2.1454 0.251677 2.30658C0.465562 2.46777 0.734719 2.53739 0.999935 2.50013H4.46894C5.04293 2.50013 5.22593 2.61513 5.37494 2.75013C5.52394 2.88513 5.70994 3.15713 5.87494 3.71913L10.5629 19.6561C10.5714 19.6879 10.5814 19.7193 10.5929 19.7501C10.5929 19.7501 11.7039 22.5001 14.4999 22.5001H22.3439C22.6092 22.5001 22.8635 22.3948 23.051 22.2072C23.2386 22.0197 23.3439 21.7653 23.3439 21.5001C23.3439 21.2349 23.2386 20.9806 23.051 20.793C22.8635 20.6055 22.6092 20.5001 22.3439 20.5001H14.4999C13.0249 20.5001 12.4369 19.0001 12.4369 19.0001L12.2809 18.5001H20.4059C21.4359 18.5001 21.9019 17.6361 21.9999 17.3121L25.5939 9.59413C26.1499 8.26013 25.8589 6.50013 23.8119 6.50013H9.31194C9.14594 6.50013 8.96093 6.54213 8.78193 6.59413C8.42194 5.37113 7.85394 3.40413 7.78194 3.15613C7.57194 2.44313 7.29193 1.76913 6.71894 1.25013C6.14594 0.731129 5.34894 0.500129 4.46894 0.500129H0.999935C0.968619 0.498655 0.937251 0.498655 0.905935 0.500129C0.874619 0.498657 0.843251 0.498657 0.811935 0.500129C0.781285 0.498723 0.750586 0.498723 0.719935 0.500129H0.718935ZM9.62494 8.56313H13.8439V10.3431H10.1879L9.71794 8.84313C9.68594 8.73313 9.63793 8.63913 9.62494 8.56313ZM15.1559 8.56313H17.8439V10.3431H15.1559V8.56313ZM19.1559 8.56313H23.7809C23.7674 8.63763 23.7466 8.71064 23.7189 8.78113L22.9999 10.3441H19.1559V8.56313ZM10.5939 11.6561H13.8439V13.3441H11.1249L10.5939 11.6561ZM15.1559 11.6561H17.8439V13.3441H15.1559V11.6561ZM19.1559 11.6561H22.3749L21.5939 13.3441H19.1559V11.6561ZM11.5309 14.6561H13.8439V16.4371H12.1879C12.1479 16.4371 12.1259 16.4241 12.0939 16.4071L11.5309 14.6561ZM15.1559 14.6561H17.8439V16.4371H15.1559V14.6561ZM19.1559 14.6561H20.9999L20.1559 16.4371H19.1559V14.6561ZM13.9999 22.6871C13.5192 22.6871 13.0582 22.8781 12.7183 23.218C12.3784 23.5579 12.1874 24.0189 12.1874 24.4996C12.1874 24.9803 12.3784 25.4413 12.7183 25.7813C13.0582 26.1212 13.5192 26.3121 13.9999 26.3121C14.4806 26.3121 14.9417 26.1212 15.2816 25.7813C15.6215 25.4413 15.8124 24.9803 15.8124 24.4996C15.8124 24.0189 15.6215 23.5579 15.2816 23.218C14.9417 22.8781 14.4806 22.6871 13.9999 22.6871ZM19.9999 22.6871C19.5192 22.6871 19.0582 22.8781 18.7183 23.218C18.3784 23.5579 18.1874 24.0189 18.1874 24.4996C18.1874 24.9803 18.3784 25.4413 18.7183 25.7813C19.0582 26.1212 19.5192 26.3121 19.9999 26.3121C20.4806 26.3121 20.9417 26.1212 21.2816 25.7813C21.6215 25.4413 21.8124 24.9803 21.8124 24.4996C21.8124 24.0189 21.6215 23.5579 21.2816 23.218C20.9417 22.8781 20.4806 22.6871 19.9999 22.6871Z" fill="white"/>
</svg>