<svg width="20" height="21" viewBox="0 0 20 21" fill="none" xmlns="http://www.w3.org/2000/svg">
<path d="M10 0.75C4.62391 0.75 0.25 5.12391 0.25 10.5C0.25 15.8761 4.62391 20.25 10 20.25C15.3761 20.25 19.75 15.8761 19.75 10.5C19.75 5.12391 15.3761 0.75 10 0.75ZM7.64594 6.22594C8.23984 5.59641 9.07563 5.25 10 5.25C10.9244 5.25 11.7527 5.59875 12.3489 6.23156C12.9531 6.87281 13.247 7.73437 13.1777 8.66062C13.0389 10.5 11.6139 12 10 12C8.38609 12 6.95828 10.5 6.82234 8.66016C6.75344 7.72641 7.04688 6.86203 7.64594 6.22594ZM10 18.75C8.89866 18.7507 7.80838 18.5303 6.79382 18.1018C5.77927 17.6732 4.86109 17.0453 4.09375 16.2553C4.53323 15.6286 5.0932 15.0957 5.74094 14.6878C6.93578 13.9219 8.44797 13.5 10 13.5C11.552 13.5 13.0642 13.9219 14.2577 14.6878C14.9059 15.0955 15.4664 15.6284 15.9062 16.2553C15.139 17.0454 14.2208 17.6734 13.2062 18.1019C12.1917 18.5304 11.1014 18.7508 10 18.75Z" fill="white"/>
</svg>